<svg xmlns="http://www.w3.org/2000/svg" width="30" height="27.626" viewBox="0 0 30 27.626">
  <g id="heart" transform="translate(0 -20.259)">
    <g id="Group_5" data-name="Group 5" transform="translate(0 20.259)">
      <path id="Path_6" data-name="Path 6" d="M27.346,22.949a9.3,9.3,0,0,0-12.317-.678,9.294,9.294,0,0,0-5.785-2.012A9.244,9.244,0,0,0,2.69,36.022L14.237,47.569a1.079,1.079,0,0,0,1.525,0L27.318,36.049a9.374,9.374,0,0,0,.028-13.1ZM25.785,34.53,15,45.281,4.216,34.5A7.068,7.068,0,0,1,9.245,22.417a7.174,7.174,0,0,1,5.037,2.067,1.079,1.079,0,0,0,1.517-.009,7.128,7.128,0,0,1,10.012-.009,7.215,7.215,0,0,1-.026,10.064Z" transform="translate(0 -20.259)" fill="#6b6b6b"/>
    </g>
  </g>
</svg>
