<svg xmlns="http://www.w3.org/2000/svg" width="29.363" height="30" viewBox="0 0 29.363 30">
  <path id="shopper" d="M6.322,20.546a4.232,4.232,0,0,0,3.334,4.13,2.8,2.8,0,1,0,2.6.1H23.418a2.8,2.8,0,1,0,2.775,0h2.1a1.056,1.056,0,0,0,0-2.113H10.547a2.115,2.115,0,0,1-2.113-2.113V18.974a4.2,4.2,0,0,0,2.113.568H24.806a5.491,5.491,0,0,0,5.055-3.813l2.615-9.154A1.057,1.057,0,0,0,31.46,5.229H8.434v-1A4.23,4.23,0,0,0,4.209,0a1.056,1.056,0,0,0,0,2.113A2.115,2.115,0,0,1,6.322,4.226Zm18.484,7.342a.687.687,0,1,1,.687-.687A.688.688,0,0,1,24.806,27.887Zm-13.942,0a.687.687,0,1,1,.687-.687A.688.688,0,0,1,10.864,27.887ZM27.829,15.148a3.427,3.427,0,0,1-3.024,2.281H10.547a2.115,2.115,0,0,1-2.113-2.113V7.342H30.059Z" transform="translate(-3.153)" fill="#6b6b6b"/>
</svg>
