<svg id="brands-and-logotypes" xmlns="http://www.w3.org/2000/svg" width="23.834" height="23.834" viewBox="0 0 23.834 23.834">
  <g id="Group_39" data-name="Group 39">
    <path id="Path_21" data-name="Path 21" d="M21.041,0H2.793A2.8,2.8,0,0,0,0,2.793V21.041a2.8,2.8,0,0,0,2.793,2.793H21.041a2.8,2.8,0,0,0,2.793-2.793V2.793A2.8,2.8,0,0,0,21.041,0Zm.931,21.041a.932.932,0,0,1-.931.931H15.734V14.384H18.61l.475-2.886H15.734v-2a1.373,1.373,0,0,1,1.4-1.4h1.909V5.214H17.13A4.282,4.282,0,0,0,12.849,9.5V11.5H10.055v2.886h2.794v7.588H2.793a.932.932,0,0,1-.931-.931V2.793a.932.932,0,0,1,.931-.931H21.041a.932.932,0,0,1,.931.931Z" fill="#fff"/>
  </g>
</svg>
