<svg xmlns="http://www.w3.org/2000/svg" width="40.694" height="40.774" viewBox="0 0 40.694 40.774">
  <path id="signs" d="M9.538,16.294a6.763,6.763,0,0,0,6.756,6.756,1.59,1.59,0,1,1,0,3.179,9.935,9.935,0,1,1,9.935-9.935,1.59,1.59,0,0,1-3.179,0,6.756,6.756,0,1,0-13.512,0Zm1.249,14.06c-4.079-4.467-7.6-8.325-7.607-14.075a13.114,13.114,0,0,1,26.229,0A1.589,1.589,0,0,0,31,17.866h0a1.59,1.59,0,0,0,1.588-1.591A16.293,16.293,0,0,0,4.779,4.766,16.19,16.19,0,0,0,0,16.278a17.024,17.024,0,0,0,2.69,9.086A48.373,48.373,0,0,0,8.439,32.5a54.269,54.269,0,0,1,6.034,7.457,1.59,1.59,0,1,0,2.687-1.7,56.719,56.719,0,0,0-6.374-7.9Zm29.491.763a1.59,1.59,0,0,1-2.246.1l-.2-.182V36.3a4.482,4.482,0,0,1-4.475,4.479H24.425A4.482,4.482,0,0,1,19.95,36.3V31.109l-.119.109a1.59,1.59,0,1,1-2.145-2.346l8.2-7.5a4.485,4.485,0,0,1,6.083,0l5.257,4.807a1.591,1.591,0,0,1,.164.15l2.784,2.545a1.589,1.589,0,0,1,.1,2.246Zm-5.624-2.988-4.827-4.413a1.321,1.321,0,0,0-1.792,0L23.129,28.2V36.3a1.3,1.3,0,0,0,1.3,1.3h8.933a1.3,1.3,0,0,0,1.3-1.3Zm0,0" transform="translate(0 0)" fill="#cc0226"/>
</svg>
