<svg id="user" xmlns="http://www.w3.org/2000/svg" width="30" height="30" viewBox="0 0 30 30">
  <g id="Group_12" data-name="Group 12">
    <g id="Group_11" data-name="Group 11">
      <path id="Path_11" data-name="Path 11" d="M15,0A15,15,0,1,0,30,15,15.017,15.017,0,0,0,15,0Zm0,27.625A12.625,12.625,0,1,1,27.625,15,12.64,12.64,0,0,1,15,27.625Z" fill="#6b6b6b"/>
    </g>
  </g>
  <g id="Group_14" data-name="Group 14" transform="translate(3.887 17.662)">
    <g id="Group_13" data-name="Group 13">
      <path id="Path_12" data-name="Path 12" d="M77.443,301.425c-4.219,0-8.166,2.115-11.113,5.956l1.884,1.445c2.488-3.241,5.766-5.027,9.23-5.027s6.741,1.785,9.229,5.027l1.884-1.445C85.609,303.54,81.662,301.425,77.443,301.425Z" transform="translate(-66.33 -301.425)" fill="#6b6b6b"/>
    </g>
  </g>
  <g id="Group_16" data-name="Group 16" transform="translate(8.826 5.383)">
    <g id="Group_15" data-name="Group 15">
      <path id="Path_13" data-name="Path 13" d="M156.8,91.863a6.214,6.214,0,1,0,6.174,6.214A6.2,6.2,0,0,0,156.8,91.863Zm0,10.053a3.839,3.839,0,1,1,3.8-3.839A3.824,3.824,0,0,1,156.8,101.916Z" transform="translate(-150.628 -91.863)" fill="#6b6b6b"/>
    </g>
  </g>
</svg>
